<svg width="50" height="60" viewBox="0 0 50 60" fill="none" xmlns="http://www.w3.org/2000/svg">
<path fill-rule="evenodd" clip-rule="evenodd" d="M36.4199 0.000244141C36.4199 0.000244141 37.6756 5.76227 33.9794 9.49229C30.2792 13.2183 24.8521 13.7143 24.8521 13.7143C24.8521 13.7143 24.2759 8.06228 27.7557 4.47627C31.2315 0.894249 36.4199 0.000244141 36.4199 0.000244141ZM47.6664 20.4484C47.6664 20.4484 39.6957 25.3204 41.3639 33.6284C43.034 41.9465 49.4902 44.0105 49.4902 44.0105C49.4902 44.0105 46.0064 53.2605 42.1646 56.4825C38.337 59.7045 37.1723 60.5725 33.8401 59.6425C32.7701 59.3447 31.8284 58.9659 30.9307 58.6049C29.0256 57.8387 27.3184 57.1521 25.004 57.4865C23.4539 57.7178 22.0241 58.2736 20.6598 58.8039C19.0272 59.4385 17.4884 60.0367 15.9495 59.9985C13.1248 59.9285 9.14149 57.4205 5.22693 50.7565C1.3164 44.0965 -0.713673 35.5024 0.228574 28.7684C1.1688 22.0324 6.37339 16.3923 11.3091 15.1603C15.8688 14.0166 18.6423 15.1904 21.0239 16.1983C22.3905 16.7766 23.628 17.3003 24.9999 17.3003C24.9999 17.3003 26.3021 17.3003 28.9105 16.2283C29.1313 16.1366 29.3521 16.0424 29.5745 15.9475C31.9761 14.9231 34.5674 13.8177 39.3419 14.8683C44.5586 16.0083 47.6664 20.4484 47.6664 20.4484Z" fill="url(#paint0_linear_76_344)"/>
<defs>
<linearGradient id="paint0_linear_76_344" x1="39.9581" y1="-9.99976" x2="13.991" y2="64.9393" gradientUnits="userSpaceOnUse">
<stop stop-color="#DEDEDE"/>
<stop offset="0.962227" stop-color="#565656"/>
</linearGradient>
</defs>
</svg>
