<svg width="51" height="51" viewBox="0 0 51 51" fill="none" xmlns="http://www.w3.org/2000/svg">
<path d="M49.4248 25.0108C49.4248 38.272 38.6792 49.0216 25.4248 49.0216C12.1704 49.0216 1.4248 38.272 1.4248 25.0108C1.4248 11.7496 12.1704 1 25.4248 1C38.6792 1 49.4248 11.7496 49.4248 25.0108Z" stroke="black" stroke-width="2"/>
<path d="M24.0213 25.4408L20.104 29.1516C19.8267 29.4317 18.4285 30.762 17.0303 29.4317C15.632 28.1014 17.0302 26.7711 17.4963 26.3276L23.0892 21.0065C24.4874 19.6762 26.3517 19.6762 27.75 21.0065C30.1265 23.2675 32.2153 25.3591 33.3428 26.3276C33.8591 26.7711 35.2071 28.1014 33.8089 29.4317C32.4107 30.762 31.0124 29.4317 30.5464 28.9883L26.8178 25.4408" stroke="black" stroke-width="2"/>
</svg>
