<svg width="24" height="22" viewBox="0 0 24 22" fill="none" xmlns="http://www.w3.org/2000/svg">
<path d="M3.71059 5.1378L0 1.8507L1.61902 0.416016L5.32846 3.70413H22.7681C22.9465 3.70412 23.1223 3.74105 23.2817 3.81198C23.4411 3.8829 23.5795 3.98586 23.686 4.11263C23.7925 4.2394 23.8641 4.38648 23.895 4.54212C23.926 4.69775 23.9154 4.85765 23.8642 5.00904L21.1182 13.1203C21.0476 13.3293 20.9027 13.5125 20.7053 13.6427C20.5078 13.7729 20.2682 13.8433 20.0221 13.8432H5.99895V15.8711H18.585V17.8989H4.85477C4.55131 17.8989 4.26029 17.7921 4.04571 17.6019C3.83114 17.4118 3.71059 17.1539 3.71059 16.885V5.1378ZM5.99895 5.73195V11.8154H19.1708L21.2303 5.73195H5.99895ZM5.42686 21.9545C4.97168 21.9545 4.53514 21.7943 4.21327 21.5091C3.89141 21.2239 3.71059 20.837 3.71059 20.4337C3.71059 20.0303 3.89141 19.6435 4.21327 19.3583C4.53514 19.073 4.97168 18.9128 5.42686 18.9128C5.88205 18.9128 6.31859 19.073 6.64045 19.3583C6.96232 19.6435 7.14314 20.0303 7.14314 20.4337C7.14314 20.837 6.96232 21.2239 6.64045 21.5091C6.31859 21.7943 5.88205 21.9545 5.42686 21.9545ZM19.1571 21.9545C18.7019 21.9545 18.2653 21.7943 17.9435 21.5091C17.6216 21.2239 17.4408 20.837 17.4408 20.4337C17.4408 20.0303 17.6216 19.6435 17.9435 19.3583C18.2653 19.073 18.7019 18.9128 19.1571 18.9128C19.6123 18.9128 20.0488 19.073 20.3707 19.3583C20.6925 19.6435 20.8733 20.0303 20.8733 20.4337C20.8733 20.837 20.6925 21.2239 20.3707 21.5091C20.0488 21.7943 19.6123 21.9545 19.1571 21.9545Z" fill="#06010E"/>
</svg>
