<svg width="25" height="21" viewBox="0 0 25 21" fill="none" xmlns="http://www.w3.org/2000/svg">
<path d="M12.4457 2.6074C15.3143 0.325575 19.7473 0.401311 22.5108 2.85408C25.2732 5.30793 25.3684 9.21592 22.799 11.765L12.4433 20.9529L2.09001 11.765C-0.479383 9.21592 -0.382908 5.30144 2.37821 2.85408C5.14422 0.404557 9.56861 0.322329 12.4457 2.6074ZM20.7816 4.38287C18.9498 2.75779 15.9945 2.69179 14.0773 4.21733L12.447 5.5135L10.8155 4.21842C8.89207 2.69071 5.94288 2.75779 4.10621 4.38503C2.28662 5.99713 2.19503 8.57757 3.87174 10.2827L12.4445 17.8899L21.0173 10.2838C22.6952 8.57757 22.6036 6.00038 20.7816 4.38287Z" fill="#06010E"/>
</svg>
