<svg width="201" height="48" viewBox="0 0 201 48" fill="none" xmlns="http://www.w3.org/2000/svg">
<path d="M78.1471 33.755H73.4805V13.4958H78.1471V21.7046H88.5318V13.4958H93.1985V33.7531H88.5318V25.2749H78.1471V33.755ZM101.661 25.6272C101.661 29.2107 102.804 30.7028 106.663 30.7028C110.522 30.7028 111.616 29.1956 111.616 25.6272V13.4939H116.278V25.7402C116.518 27.6488 116.059 29.5781 114.983 31.1795C113.155 33.1615 110.501 33.9773 106.644 33.9773C102.787 33.9773 100.099 33.1615 98.2785 31.1795C97.2575 30.0905 97.0061 28.3063 97.0061 25.7402V13.4939H101.64L101.661 25.6272ZM131.534 13.4939L140.981 33.7531H135.814L133.776 28.9262H124.137L122.162 33.7531H117.204L126.585 13.4939H131.534ZM125.635 25.3182H132.244L128.878 17.5333L125.635 25.3182ZM172.575 13.4958L165.718 33.7531H160.004L155.299 18.6506L151.166 33.7738H145.48L138.095 13.5165H143.105L148.248 29.0901L152.572 13.5165H158.071L163.038 29.0901L167.825 13.5165L172.575 13.4958ZM178.871 21.7329H191.779V25.2447H178.827C178.852 28.8847 180.427 30.2073 184.103 30.2073H191.76V33.7362H183.886C181.44 33.9622 178.991 33.3349 176.968 31.9595C175.785 31.0047 174.857 29.7775 174.265 28.3854C173.673 26.9933 173.436 25.4789 173.573 23.9749C173.573 16.8155 176.878 13.4807 184.012 13.4807H191.758V17.0114H184.101C180.741 17.0095 179.044 18.53 178.853 21.7178L178.871 21.7329ZM195.89 13.4958H200.766V33.755H195.89V13.4958Z" fill="white"/>
<path d="M28.1625 37.0162C28.2311 36.9597 28.2521 36.8655 28.2159 36.7845C23.4496 26.6673 17.508 17.1338 10.5112 8.37674C10.5112 8.37674 4.94928 13.5956 5.34356 18.8332C5.53294 21.2738 6.69253 23.5407 8.56831 25.1373C13.4197 29.8154 25.1683 35.72 27.9016 37.0558C27.9873 37.1029 28.0959 37.0859 28.1644 37.0181L28.1625 37.0162ZM26.3473 41.0198C26.3291 40.9681 26.2952 40.9234 26.2501 40.8916C26.2051 40.8599 26.1512 40.8428 26.0959 40.8427V40.8389L6.53403 41.5134C8.65403 45.2552 12.2483 48.1604 15.9492 47.2692C18.5168 46.6343 24.3378 42.6194 26.2349 41.2647V41.2591C26.3816 41.1272 26.3302 41.0217 26.3302 41.0217L26.3473 41.0198ZM26.6425 39.2808C26.7378 39.1301 26.5663 38.9982 26.5663 38.9982L26.5683 38.9907C17.9969 33.2632 1.32643 24.459 1.32643 24.459C0.425263 27.2182 0.615483 30.2127 1.85873 32.8386C3.10197 35.4645 5.30572 37.5263 8.02546 38.6082C9.22014 39.0765 10.4833 39.3514 11.7664 39.4221C12.0597 39.4787 23.4006 39.4278 26.4368 39.4146C26.5225 39.4052 26.5987 39.3543 26.6387 39.2789L26.6425 39.2808ZM27.9416 0.0228547C27.0883 0.0982168 24.7911 0.614445 24.7911 0.614445C21.7568 1.37937 19.3378 3.63835 18.3873 6.58689C17.8505 8.59907 17.8597 10.7157 18.414 12.7232C20.1416 20.3084 28.6502 32.7771 30.4749 35.3922C30.6044 35.5203 30.7111 35.4732 30.7111 35.4732C30.8216 35.4468 30.8978 35.3451 30.892 35.232H30.8959C33.7073 7.39892 27.9435 0.000244141 27.9435 0.000244141L27.9416 0.0228547ZM34.4139 35.4656C34.5206 35.509 34.6425 35.4637 34.6958 35.362C36.5739 32.6753 45.031 20.2764 46.7491 12.7232C47.2634 10.7111 47.2748 8.60471 46.7815 6.58689C46.3076 5.12905 45.465 3.81516 44.3336 2.76991C43.2022 1.72465 41.8195 0.982691 40.3168 0.614445C40.3168 0.614445 38.8215 0.241406 37.2368 0.0209717C37.2368 0.0209717 31.4387 7.40268 34.2577 35.2527H34.2616C34.2635 35.3469 34.3225 35.4336 34.4139 35.4656ZM39.0425 40.8597C39.0425 40.8597 38.852 40.8823 38.8215 41.0066C38.7987 41.1008 38.8273 41.2026 38.8977 41.2704C40.7644 42.5986 46.4406 46.5457 49.1834 47.2862C49.1834 47.2862 54.2405 48.9893 58.631 41.5285L39.0463 40.8502L39.0425 40.8597ZM63.8424 24.4157C63.8424 24.4157 47.2139 33.2406 38.6139 38.9794C38.5708 39.0113 38.5384 39.0553 38.5211 39.1058C38.5037 39.1562 38.5022 39.2107 38.5168 39.262C38.5168 39.262 38.5987 39.4071 38.7187 39.4071V39.4108L53.7396 39.3731C54.8944 39.2833 56.0293 39.0242 57.1072 38.6045C59.9167 37.5155 62.1777 35.3752 63.4043 32.6471C64.5555 30.0461 64.7112 27.1199 63.8424 24.4138V24.4157ZM37.0425 37.0369C37.1187 37.0934 37.2235 37.101 37.3092 37.0558C40.1092 35.6729 51.772 29.8078 56.6005 25.1542C58.4756 23.5454 59.6337 21.27 59.8234 18.8219C60.1758 13.4053 54.6805 8.3937 54.6805 8.3937C47.6977 17.1279 41.7658 26.6359 37.0044 36.7261H37.0101C36.9587 36.8297 36.9796 36.9521 37.0635 37.035" fill="url(#paint0_linear_76_348)"/>
<defs>
<linearGradient id="paint0_linear_76_348" x1="32.5814" y1="0.000244141" x2="32.2025" y2="48.2301" gradientUnits="userSpaceOnUse">
<stop stop-color="#D3D3D3"/>
<stop offset="1" stop-color="#404040"/>
</linearGradient>
</defs>
</svg>
