<svg width="20" height="21" viewBox="0 0 20 21" fill="none" xmlns="http://www.w3.org/2000/svg">
<path d="M9.92567 20.8686L3.1205 14.9336C1.77458 13.7598 0.858005 12.2643 0.486674 10.6362C0.115343 9.00802 0.305935 7.32042 1.03435 5.78675C1.76276 4.25309 2.99628 2.94224 4.57893 2.01998C6.16157 1.09772 8.02224 0.605469 9.92567 0.605469C11.8291 0.605469 13.6898 1.09772 15.2724 2.01998C16.8551 2.94224 18.0886 4.25309 18.817 5.78675C19.5454 7.32042 19.736 9.00802 19.3647 10.6362C18.9933 12.2643 18.0768 13.7598 16.7308 14.9336L9.92567 20.8686ZM15.2188 13.615C16.2656 12.702 16.9784 11.5388 17.2672 10.2725C17.5559 9.00616 17.4076 7.69361 16.8411 6.50079C16.2745 5.30798 15.3151 4.28846 14.0842 3.57118C12.8532 2.85389 11.4061 2.47104 9.92567 2.47104C8.44526 2.47104 6.99809 2.85389 5.76716 3.57118C4.53623 4.28846 3.57683 5.30798 3.01026 6.50079C2.4437 7.69361 2.29542 9.00616 2.58418 10.2725C2.87294 11.5388 3.58576 12.702 4.63252 13.615L9.92567 18.2313L15.2188 13.615ZM9.92567 10.8638C9.35846 10.8638 8.81449 10.6673 8.41342 10.3175C8.01234 9.96776 7.78702 9.49335 7.78702 8.99867C7.78702 8.504 8.01234 8.02958 8.41342 7.6798C8.81449 7.33001 9.35846 7.1335 9.92567 7.1335C10.4929 7.1335 11.0368 7.33001 11.4379 7.6798C11.839 8.02958 12.0643 8.504 12.0643 8.99867C12.0643 9.49335 11.839 9.96776 11.4379 10.3175C11.0368 10.6673 10.4929 10.8638 9.92567 10.8638Z" fill="#101010"/>
</svg>
