<svg width="201" height="43" viewBox="0 0 201 43" fill="none" xmlns="http://www.w3.org/2000/svg">
<path d="M71.0971 24.4625L69.9048 27.8207H69.8055C69.6068 27.0635 69.2425 25.9112 68.6463 24.5284L62.2545 8.56041H55.9951V34.0104H60.1349V18.3058L60.1018 14.8159C60.0687 14.1245 60.0024 13.5977 59.9693 13.2026H60.0687C60.2674 14.1904 60.4992 14.9147 60.6648 15.3756L68.3483 33.9445H71.2627L78.8799 15.211C79.0455 14.783 79.2111 13.927 79.3767 13.2026H79.476L79.2773 17.779V33.9116H83.6821V8.49457H77.6545L71.0971 24.4625ZM87.855 15.6719H92.1603V33.9116H87.855V15.6719ZM90.0408 7.96779C89.3122 7.96779 88.716 8.23118 88.2193 8.69211C87.7225 9.15304 87.4575 9.74567 87.4575 10.47C87.4529 10.7979 87.5184 11.123 87.6498 11.4238C87.7811 11.7247 87.9752 11.9943 88.2193 12.2149C88.716 12.6759 89.3122 12.9063 90.0408 12.9063C90.7694 12.9063 91.3986 12.6429 91.8623 12.2149C92.1064 11.9943 92.3005 11.7247 92.4318 11.4238C92.5631 11.123 92.6286 10.7979 92.624 10.47C92.624 9.77859 92.3591 9.18596 91.8623 8.69211C91.4317 8.23118 90.8025 7.96779 90.0408 7.96779ZM107.428 15.5073C106.633 15.3427 105.805 15.2439 105.01 15.2439C103.056 15.2439 101.268 15.6719 99.7776 16.5279C98.2872 17.384 97.095 18.5692 96.3333 20.0508C95.5384 21.5653 95.141 23.3102 95.141 25.3186C95.141 27.0635 95.5384 28.6109 96.3001 30.0266C97.0619 31.4094 98.1217 32.5288 99.5457 33.2861C100.904 34.0433 102.493 34.4384 104.282 34.4384C106.335 34.4384 108.09 34.0104 109.481 33.2202L109.514 33.1873V29.2365L109.349 29.3682C108.72 29.8291 107.991 30.2242 107.262 30.4546C106.501 30.718 105.805 30.8497 105.209 30.8497C103.487 30.8497 102.129 30.3559 101.169 29.2694C100.175 28.2158 99.6782 26.7672 99.6782 24.9564C99.6782 23.0797 100.175 21.5982 101.202 20.5117C102.228 19.4252 103.586 18.8655 105.242 18.8655C106.633 18.8655 108.057 19.3264 109.349 20.2483L109.514 20.38V16.1987L109.481 16.1658C108.918 15.9353 108.289 15.6719 107.428 15.5073ZM121.636 15.3756C120.576 15.3756 119.582 15.7048 118.721 16.3962C117.993 16.9889 117.496 17.8449 117.065 18.8655H117.032V15.6719H112.727V33.9116H117.032V24.5942C117.032 23.0139 117.363 21.6969 118.092 20.7422C118.821 19.7545 119.748 19.2606 120.874 19.2606C121.271 19.2606 121.669 19.3594 122.166 19.4252C122.629 19.5569 122.96 19.6886 123.192 19.8532L123.358 19.9849V15.7048L123.258 15.6719C122.96 15.4744 122.364 15.3756 121.636 15.3756ZM133.36 15.2768C130.346 15.2768 127.928 16.1658 126.239 17.9107C124.517 19.6557 123.689 22.0591 123.689 25.0881C123.689 27.9195 124.55 30.2242 126.206 31.9033C127.862 33.5495 130.114 34.4055 132.929 34.4055C135.877 34.4055 138.228 33.5165 139.917 31.7387C141.639 29.9608 142.467 27.5903 142.467 24.6601C142.467 21.7628 141.672 19.4581 140.049 17.779C138.493 16.0999 136.208 15.2768 133.36 15.2768ZM136.804 29.3023C136.009 30.3229 134.751 30.8168 133.194 30.8168C131.637 30.8168 130.379 30.3229 129.485 29.2365C128.591 28.2158 128.16 26.7343 128.16 24.8576C128.16 22.9151 128.624 21.4336 129.485 20.38C130.379 19.3264 131.604 18.7997 133.161 18.7997C134.684 18.7997 135.877 19.2935 136.738 20.3142C137.599 21.3348 138.062 22.8164 138.062 24.7588C137.996 26.7343 137.632 28.2817 136.804 29.3023ZM152.071 23.2444C150.714 22.6847 149.853 22.2566 149.455 21.8945C149.124 21.5653 148.958 21.1043 148.958 20.5117C148.958 20.0178 149.157 19.524 149.654 19.1947C150.151 18.8655 150.714 18.7009 151.542 18.7009C152.27 18.7009 153.032 18.8326 153.76 19.0301C154.489 19.2277 155.151 19.524 155.681 19.9191L155.847 20.0508V16.0341L155.748 16.0012C155.251 15.8036 154.588 15.6061 153.794 15.4415C152.999 15.3098 152.27 15.2439 151.674 15.2439C149.621 15.2439 147.932 15.7378 146.607 16.8242C145.282 17.8449 144.653 19.2277 144.653 20.8409C144.653 21.6969 144.785 22.4542 145.083 23.0797C145.382 23.7053 145.812 24.2979 146.408 24.7918C147.004 25.2527 147.865 25.7795 149.058 26.2733C150.051 26.7013 150.813 27.0306 151.277 27.294C151.74 27.5574 152.038 27.8537 152.27 28.0841C152.436 28.3475 152.535 28.6768 152.535 29.1048C152.535 30.3229 151.608 30.9156 149.72 30.9156C148.991 30.9156 148.23 30.7839 147.336 30.4876C146.441 30.1912 145.613 29.7632 144.918 29.2694L144.752 29.1377V33.319L144.852 33.3519C145.481 33.6482 146.243 33.8458 147.17 34.0762C148.097 34.2409 148.925 34.3726 149.654 34.3726C151.873 34.3726 153.694 33.8787 154.986 32.7922C156.311 31.7387 157.006 30.3888 157.006 28.6438C157.006 27.4257 156.675 26.3392 155.946 25.5161C154.986 24.7259 153.794 23.9028 152.071 23.2444ZM168.366 15.2768C165.352 15.2768 162.934 16.1658 161.245 17.9107C159.556 19.6557 158.695 22.0591 158.695 25.0881C158.695 27.9195 159.556 30.2242 161.212 31.9033C162.868 33.5495 165.12 34.4055 167.935 34.4055C170.883 34.4055 173.234 33.5165 174.923 31.7387C176.645 29.9608 177.473 27.5903 177.473 24.6601C177.473 21.7628 176.678 19.4581 175.056 17.779C173.499 16.0999 171.214 15.2768 168.366 15.2768ZM171.777 29.3023C170.982 30.3229 169.724 30.8168 168.167 30.8168C166.577 30.8168 165.352 30.3229 164.458 29.2365C163.564 28.2158 163.133 26.7343 163.133 24.8576C163.133 22.9151 163.597 21.4336 164.458 20.38C165.352 19.3264 166.577 18.7997 168.134 18.7997C169.624 18.7997 170.85 19.2935 171.711 20.3142C172.572 21.3348 173.035 22.8164 173.035 24.7588C173.035 26.7343 172.605 28.2817 171.777 29.3023ZM200.49 19.1947V15.6719H196.152V10.2724L196.02 10.3054L191.913 11.5235L191.813 11.5565V15.6719H185.322V13.3673C185.322 12.3137 185.587 11.4906 186.051 10.9638C186.515 10.4371 187.21 10.1737 188.071 10.1737C188.667 10.1737 189.296 10.3054 189.992 10.6017L190.158 10.7005V6.98008L190.058 6.94716C189.462 6.74961 188.667 6.61792 187.641 6.61792C186.349 6.61792 185.223 6.91423 184.196 7.40809C183.17 7.96779 182.408 8.72503 181.845 9.74567C181.282 10.7334 180.984 11.8528 180.984 13.1368V15.6719H177.97V19.1618H180.984V33.9116H185.322V19.1947H191.813V28.578C191.813 32.4301 193.635 34.3726 197.278 34.3726C197.874 34.3726 198.503 34.2738 199.1 34.175C199.729 34.0433 200.192 33.8787 200.457 33.747L200.49 33.7141V30.1912L200.325 30.3229C200.06 30.4876 199.828 30.6193 199.431 30.718C199.1 30.8168 198.801 30.8497 198.57 30.8497C197.709 30.8497 197.112 30.6522 196.682 30.1583C196.284 29.6974 196.086 28.9401 196.086 27.8207V19.1947H200.49Z" fill="white"/>
<path fill-rule="evenodd" clip-rule="evenodd" d="M20.7918 0.000244141H0.490234V20.1824H20.7918V0.000244141ZM43.2127 0.000244141H22.9111V20.1824H43.2127V0.000244141ZM0.490234 22.2895H20.7918V42.4717H0.490234V22.2895ZM43.2127 22.2896H22.9111V42.4717H43.2127V22.2896Z" fill="url(#paint0_linear_76_337)"/>
<defs>
<linearGradient id="paint0_linear_76_337" x1="0.490234" y1="0.000244141" x2="42.9711" y2="41.0456" gradientUnits="userSpaceOnUse">
<stop offset="0.138829" stop-color="#B5B5B5"/>
<stop offset="1" stop-color="#292929"/>
</linearGradient>
</defs>
</svg>
