<svg width="185" height="60" viewBox="0 0 185 60" fill="none" xmlns="http://www.w3.org/2000/svg">
<path d="M184.651 14.2867C187.166 28.3945 147.93 46.8687 97.0061 55.5493C46.0895 64.2298 2.77439 59.8261 0.263481 45.7108C-2.24743 31.603 36.9999 13.1326 87.9165 4.45573C138.837 -4.2323 182.144 0.175212 184.651 14.2867Z" fill="url(#paint0_linear_76_327)"/>
<path d="M141.191 39.0472H134.398L129.682 23.8749H129.579L129.842 39.0472H125.145V20.5581H132.235L136.623 35.2261H136.726L136.467 20.5581H141.191V39.0472ZM50.9353 22.2912H50.8285L48.2145 39.2414H43.0592L46.5966 20.5581H55.0871L58.6131 39.2414H53.4768L50.9353 22.2912ZM72.984 34.8414H73.0871L75.4453 20.5581H83.2299L83.6421 39.2414H78.8721L78.7462 22.4443H78.647L75.4568 39.2414H70.6143L67.4204 22.4443H67.3173L67.199 39.2414H62.4176L62.8412 20.5581H70.6296L72.984 34.8414ZM35.0227 33.9711C35.2097 34.423 35.1525 35.0057 35.0647 35.3568C34.9044 35.9769 34.4732 36.6119 33.2063 36.6119C32.0081 36.6119 31.2831 35.9395 31.2831 34.9161V33.1083H26.162L26.1582 34.5538C26.1582 38.7185 29.5086 39.9773 33.0995 39.9773C36.5529 39.9773 39.3958 38.8231 39.8461 35.708C40.0789 34.0944 39.9034 33.0373 39.827 32.6376C39.0219 28.7269 31.7753 27.5578 31.2373 25.3727C31.1457 24.9992 31.1724 24.5995 31.2182 24.3866C31.3517 23.7927 31.7677 23.1353 32.9621 23.1353C34.0764 23.1353 34.7365 23.8114 34.7365 24.8311V25.9853H39.495V24.6742C39.495 20.6029 35.763 19.9679 33.0613 19.9679C29.6651 19.9679 26.8909 21.066 26.3833 24.1065C26.246 24.9469 26.2269 25.6939 26.4253 26.6315C27.261 30.4451 34.0382 31.5507 35.0227 33.9711ZM97.0896 33.9375C97.2765 34.3857 97.2155 34.9534 97.1315 35.3046C96.9751 35.9246 96.5477 36.5484 95.2884 36.5484C94.1093 36.5484 93.3881 35.876 93.3881 34.875L93.3843 33.0821H88.3166L88.309 34.509C88.309 38.6326 91.6289 39.8764 95.1816 39.8764C98.5969 39.8764 101.413 38.7372 101.86 35.6519C102.092 34.0495 101.928 33.0074 101.844 32.6152C101.043 28.7418 93.8727 27.5839 93.3385 25.4175C93.2469 25.044 93.2736 24.6518 93.3194 24.4501C93.4568 23.8487 93.8651 23.21 95.048 23.21C96.1546 23.21 96.7996 23.8674 96.7996 24.8834V26.0264H101.524V24.7265C101.524 20.7 97.8222 20.0687 95.1434 20.0687C91.7854 20.0687 89.034 21.1519 88.538 24.1737C88.4006 25.0029 88.3853 25.735 88.5838 26.6688C89.4042 30.4451 96.1165 31.5432 97.0896 33.9375ZM113.12 36.4475C114.445 36.4475 114.857 35.5511 114.948 35.0916C114.986 34.8899 114.998 34.621 114.994 34.3782V20.5506H119.821V33.9524C119.833 34.2961 119.798 35.002 119.779 35.1776C119.44 38.6662 116.624 39.798 113.117 39.798C109.606 39.798 106.786 38.6662 106.45 35.1776C106.435 35.002 106.401 34.2923 106.408 33.9524V20.5506H111.232V34.3745C111.232 34.6173 111.239 34.8899 111.277 35.0879C111.384 35.5473 111.785 36.4475 113.12 36.4475ZM152.94 36.2496C154.322 36.2496 154.806 35.3942 154.894 34.8974C154.928 34.6845 154.94 34.423 154.936 34.1877V31.476H152.978V28.7493H159.748V33.7657C159.744 34.1168 159.736 34.3745 159.679 34.9983C159.362 38.3973 156.348 39.6112 152.967 39.6112C149.578 39.6112 146.571 38.3973 146.247 34.9983C146.194 34.3745 146.186 34.1168 146.178 33.7657L146.182 25.8994C146.182 25.5669 146.224 24.9805 146.262 24.6668C146.686 21.1744 149.578 20.0501 152.967 20.0501C156.352 20.0501 159.317 21.1669 159.668 24.6668C159.729 25.2606 159.71 25.8994 159.71 25.8994V26.5231H154.898V25.4773C154.902 25.481 154.89 25.0328 154.837 24.7676C154.757 24.353 154.39 23.4043 152.933 23.4043C151.54 23.4043 151.135 24.3007 151.032 24.7676C150.975 25.0141 150.952 25.3466 150.952 25.6491V34.1952C150.948 34.4305 150.964 34.692 151.002 34.9049C151.078 35.3942 151.559 36.2496 152.94 36.2496Z" fill="white"/>
<defs>
<linearGradient id="paint0_linear_76_327" x1="129.584" y1="-3.11057" x2="16.366" y2="71.7818" gradientUnits="userSpaceOnUse">
<stop stop-color="#8D8D8D"/>
<stop offset="1" stop-color="#535353"/>
</linearGradient>
</defs>
</svg>
